<?xml version="1.0" encoding="utf-8"?>
<!-- Generator: Adobe Illustrator 16.0.0, SVG Export Plug-In . SVG Version: 6.00 Build 0)  -->
<!DOCTYPE svg PUBLIC "-//W3C//DTD SVG 1.1//EN" "http://www.w3.org/Graphics/SVG/1.1/DTD/svg11.dtd">
<svg version="1.1" id="Layer_1" xmlns="http://www.w3.org/2000/svg" xmlns:xlink="http://www.w3.org/1999/xlink" x="0px" y="0px"
	 width="56.693px" height="56.693px" viewBox="0 0 56.693 56.693" enable-background="new 0 0 56.693 56.693" xml:space="preserve">
<circle cx="28.348" cy="29.781" r="24.624"/>
<path fill="#FFFFFF" d="M40.752,24.817c0.014,0.266,0.019,0.533,0.019,0.803c0,8.201-6.242,17.656-17.656,17.656
	c-3.504,0-6.767-1.027-9.513-2.787c0.485,0.057,0.979,0.086,1.479,0.086c2.908,0,5.584-0.992,7.707-2.656
	c-2.715-0.051-5.006-1.846-5.796-4.311c0.378,0.074,0.767,0.111,1.167,0.111c0.566,0,1.114-0.074,1.635-0.218
	c-2.84-0.569-4.979-3.08-4.979-6.084c0-0.026,0-0.053,0.001-0.08c0.836,0.466,1.793,0.744,2.811,0.777
	c-1.666-1.115-2.761-3.012-2.761-5.166c0-1.137,0.306-2.204,0.84-3.12c3.062,3.754,7.634,6.226,12.792,6.483
	c-0.105-0.453-0.161-0.929-0.161-1.414c0-3.426,2.778-6.205,6.206-6.205c1.785,0,3.397,0.754,4.529,1.959
	c1.414-0.277,2.742-0.795,3.941-1.506c-0.466,1.45-1.448,2.666-2.73,3.433c1.257-0.149,2.453-0.483,3.565-0.977
	C43.018,22.849,41.965,23.942,40.752,24.817z"/>
</svg>
