<?xml version="1.0" encoding="utf-8"?>
<!-- Generator: Adobe Illustrator 16.0.0, SVG Export Plug-In . SVG Version: 6.00 Build 0)  -->
<!DOCTYPE svg PUBLIC "-//W3C//DTD SVG 1.1//EN" "http://www.w3.org/Graphics/SVG/1.1/DTD/svg11.dtd">
<svg version="1.1" id="圖層_1" xmlns="http://www.w3.org/2000/svg" xmlns:xlink="http://www.w3.org/1999/xlink" x="0px" y="0px"
	 width="56.693px" height="56.693px" viewBox="0 0 56.693 56.693" enable-background="new 0 0 56.693 56.693" xml:space="preserve">
<circle fill="#1592D1" cx="28.346" cy="28.346" r="28.347"/>
<path fill="#FFFFFF" stroke="#FFFFFF" stroke-miterlimit="10" d="M26.488,35.175c3.112,0.017,5.994-1.637,7.554-4.33
	c1.562-2.694,1.562-6.017,0-8.71c-1.56-2.694-4.441-4.345-7.554-4.332c-4.782,0.021-8.647,3.904-8.647,8.686
	C17.841,31.271,21.706,35.153,26.488,35.175z M35.636,33.583l7.805,7.817c0.488,0.579,0.449,1.434-0.09,1.965
	c-0.538,0.533-1.396,0.559-1.967,0.062l-7.789-7.788c-4.829,3.753-11.743,3.102-15.789-1.482c-4.047-4.587-3.83-11.529,0.495-15.853
	c4.324-4.325,11.266-4.542,15.852-0.495c4.584,4.045,5.235,10.96,1.482,15.79V33.583z"/>
</svg>
