<?xml version="1.0" encoding="utf-8"?>
<!-- Generator: Adobe Illustrator 16.0.0, SVG Export Plug-In . SVG Version: 6.00 Build 0)  -->
<!DOCTYPE svg PUBLIC "-//W3C//DTD SVG 1.1//EN" "http://www.w3.org/Graphics/SVG/1.1/DTD/svg11.dtd">
<svg version="1.1" id="圖層_1" xmlns="http://www.w3.org/2000/svg" xmlns:xlink="http://www.w3.org/1999/xlink" x="0px" y="0px"
	 width="56.693px" height="56.693px" viewBox="0 226.767 56.693 56.693" enable-background="new 0 226.767 56.693 56.693"
	 xml:space="preserve">
<g>
	<path d="M53.495,253.985c-0.483-0.59-11.329-14.067-25.129-14.067s-24.647,13.531-25.13,14.067c-0.536,0.646-0.536,1.56,0,2.258
		c0.483,0.59,11.331,14.067,25.13,14.067s24.646-13.531,25.129-14.067C53.979,255.597,53.979,254.63,53.495,253.985z
		 M28.366,265.209c-5.585,0-10.095-4.511-10.095-10.096s4.51-10.096,10.095-10.096c5.585,0,10.095,4.511,10.095,10.096
		S33.952,265.209,28.366,265.209z"/>
	<path d="M28.366,248.993c-0.375,0-0.805,0.053-1.182,0.105c0.429,0.593,0.698,1.291,0.698,2.096c0,1.934-1.557,3.437-3.437,3.437
		c-0.805,0-1.504-0.269-2.094-0.698c-0.055,0.377-0.108,0.753-0.108,1.182c0,3.384,2.738,6.121,6.122,6.121
		c3.384,0,6.122-2.737,6.122-6.121S31.75,248.993,28.366,248.993z"/>
</g>
</svg>
