<?xml version="1.0" encoding="utf-8"?>
<!-- Generator: Adobe Illustrator 16.0.0, SVG Export Plug-In . SVG Version: 6.00 Build 0)  -->
<!DOCTYPE svg PUBLIC "-//W3C//DTD SVG 1.1//EN" "http://www.w3.org/Graphics/SVG/1.1/DTD/svg11.dtd">
<svg version="1.1" id="圖層_1" xmlns="http://www.w3.org/2000/svg" xmlns:xlink="http://www.w3.org/1999/xlink" x="0px" y="0px"
	 width="56.693px" height="56.693px" viewBox="0 226.767 56.693 56.693" enable-background="new 0 226.767 56.693 56.693"
	 xml:space="preserve">
<path d="M13.022,270.82l29.803-29.804c0.009-0.009,0.018-0.016,0.025-0.022c0.531-0.557,0.524-1.438-0.022-1.984
	c-0.555-0.555-1.454-0.555-2.009,0l-2.956,2.955c-1.08-0.523-2.191-0.99-3.341-1.389c-2.03-0.701-4.084-1.105-6.176-1.109
	c-2.092,0.004-4.146,0.408-6.176,1.109c-3.733,1.29-7.064,3.311-10.213,5.649c-3.725,2.767-8.298,7.402-8.298,7.402
	c-1.057,1.071-1.104,2.87-0.106,3.996c0,0,0.466,0.526,1.668,1.753c2.542,2.592,5.269,4.953,8.267,6.963l-2.473,2.473
	c-0.555,0.555-0.555,1.455,0,2.01c0.547,0.546,1.428,0.553,1.984,0.022C13.008,270.836,13.013,270.828,13.022,270.82z
	 M17.008,255.563c0,0,0,0,0-0.026c0-0.085,0-0.17,0-0.255c0-0.009,0-0.019,0-0.029c-0.063-6.277,4.987-11.414,11.276-11.47
	c0.021,0,0.042,0,0.062,0s0.042,0,0.062,0c2.175,0.02,4.201,0.646,5.919,1.719l-3.958,3.958c-2.195-0.752-4.718-0.249-6.469,1.508
	c-1.48,1.484-2.067,3.496-1.767,5.403c0.004,0.028,0.01,0.056,0.015,0.084c0.01,0.059,0.02,0.117,0.031,0.176
	c0.054,0.275,0.125,0.544,0.214,0.805l-3.982,3.982c-0.875-1.585-1.383-3.398-1.403-5.32c0-0.067,0.001-0.134,0.002-0.201
	c0-0.027-0.001-0.055-0.002-0.083c0-0.065,0-0.065,0-0.065C17.009,255.675,17.009,255.592,17.008,255.563z M26.461,261.399
	l7.88-7.88c0.009,0.031,0.021,0.061,0.029,0.092l0.001,0.002c0.023,0.081,0.047,0.162,0.067,0.244
	c0.365,1.413,0.227,2.922-0.417,4.259c-0.006,0.013-0.012,0.024-0.019,0.037c-0.034,0.071-0.069,0.143-0.107,0.212
	c-0.026,0.05-0.055,0.099-0.083,0.147c-0.019,0.032-0.036,0.066-0.057,0.099c-1.087,1.835-3.084,3.065-5.381,3.073
	C27.707,261.686,27.064,261.585,26.461,261.399z M53.139,257.625c0,0-0.466,0.526-1.668,1.752c-3.44,3.51-7.219,6.597-11.551,8.959
	c-3.358,1.832-6.899,3.1-10.761,3.279c-0.272,0.013-0.543,0.019-0.813,0.02c-0.27-0.001-0.541-0.007-0.813-0.02
	c-3.169-0.147-6.122-1.028-8.936-2.352l3.707-3.707c1.756,1.116,3.831,1.761,6.042,1.752c6.162,0.024,11.276-5.027,11.338-11.211
	c0.001-0.067-0.001-0.134-0.002-0.201c0.001-0.027,0.002-0.055,0.002-0.083c0.001-0.065,0.001-0.065,0.001-0.065
	c-0.001-0.072-0.002-0.155-0.001-0.185c0,0,0,0,0-0.026c0.001-0.085,0.001-0.17,0-0.255c0-0.009,0-0.019,0-0.029
	c0.021-2.047-0.503-3.972-1.436-5.641l4.677-4.677c0.61,0.417,1.214,0.848,1.81,1.29c3.726,2.767,8.298,7.402,8.298,7.402
	C54.09,254.7,54.137,256.498,53.139,257.625z"/>
</svg>
